# Blender v2.79 (sub 0) OBJ File: ''
# www.blender.org
mtllib 1.mtl
o Mesh1_Plate_Grass_Dirt_Model
v 1.500000 0.300000 1.500000
v -1.500000 0.000000 1.500000
v 1.500000 0.000000 1.500000
v -1.500000 0.300000 1.500000
v -1.500000 0.300000 -1.500000
v 1.500000 0.300000 -1.500000
v 1.500000 0.000000 -1.500000
v -1.500000 0.000000 -1.500000
vt 118.110001 0.000000
vt 0.000000 118.110001
vt 0.000000 0.000000
vt 118.110001 118.110001
vt 118.110001 11.811000
vt 0.000000 0.000000
vt 118.110001 0.000000
vt 0.000000 11.811000
vt 0.000000 11.811000
vt 118.110001 0.000000
vt 118.110001 11.811000
vt 0.000000 0.000000
vt -118.110001 118.110001
vt -118.110001 0.000000
vt 0.000000 118.110001
vt -118.110001 11.811000
vt -118.110001 0.000000
vt 0.000000 11.811000
vt -118.110001 0.000000
vt 0.000000 0.000000
vt -118.110001 11.811000
vn 0.0000 1.0000 0.0000
vn 0.0000 0.0000 1.0000
vn 1.0000 0.0000 0.0000
vn 0.0000 -1.0000 -0.0000
vn -1.0000 0.0000 0.0000
vn 0.0000 0.0000 -1.0000
usemtl Leafs
s 1
f 1/1/1 5/2/1 4/3/1
f 5/2/1 1/1/1 6/4/1
usemtl Wood
f 1/5/2 2/6/2 3/7/2
f 2/6/2 1/5/2 4/8/2
f 1/9/3 7/10/3 6/11/3
f 7/10/3 1/9/3 3/12/3
f 2/6/4 7/13/4 3/14/4
f 7/13/4 2/6/4 8/15/4
f 2/6/5 5/16/5 8/17/5
f 5/16/5 2/6/5 4/8/5
f 5/18/6 7/19/6 8/20/6
f 7/19/6 5/18/6 6/21/6
