# Blender v2.79 (sub 0) OBJ File: 'door.blend'
# www.blender.org
mtllib door.mtl
o Cube_Cube.001
v -1.500000 0.000000 -1.000000
v -1.500000 3.750000 -1.000000
v -1.500000 0.000000 -1.500000
v -1.500000 3.750000 -1.500000
v 1.500000 0.000000 -1.000000
v 1.500000 3.750000 -1.000000
v 1.500000 0.000000 -1.500000
v 1.500000 3.750000 -1.500000
v -0.638603 0.000000 -1.500000
v -0.638603 0.000000 -1.000000
v -0.638603 2.746122 -1.500000
v -0.638603 2.746122 -1.000000
v 0.638603 2.746122 -1.500000
v 0.638603 2.746122 -1.000000
v 0.638603 0.000000 -1.500000
v 0.638603 0.000000 -1.000000
v 0.638067 2.735499 -1.500000
v 0.638067 2.735499 -1.000000
v -0.638067 2.735498 -1.500000
v -0.638067 2.735498 -1.000000
v 0.589467 2.857661 -1.000000
v 0.614477 2.775215 -1.000000
v 0.589467 2.857661 -1.500000
v 0.600250 2.822113 -1.500000
v 0.611377 2.785434 -1.000000
v -0.592375 2.821243 -1.000000
v -0.615163 2.746122 -1.000000
v -0.615163 2.746122 -1.500000
v -0.592558 2.820640 -1.000000
v -0.581328 2.857662 -1.000000
v -0.581328 2.857662 -1.500000
v 0.530913 2.967207 -1.000000
v 0.530913 2.967207 -1.500000
v -0.592558 2.820640 -1.500000
v 0.623302 2.746122 -1.000000
v 0.623302 2.746122 -1.500000
v 0.611377 2.785434 -1.500000
v 0.452113 3.063225 -1.000000
v 0.452113 3.063225 -1.500000
v -0.522774 2.967208 -1.000000
v -0.522774 2.967208 -1.500000
v -0.443974 3.063226 -1.000000
v -0.443974 3.063226 -1.500000
v 0.356095 3.142025 -1.000000
v 0.356095 3.142025 -1.500000
v -0.347956 3.142026 -1.000000
v -0.347956 3.142026 -1.500000
v 0.246549 3.200579 -1.000000
v 0.246549 3.200579 -1.500000
v -0.238409 3.200579 -1.000000
v -0.238409 3.200579 -1.500000
v -0.119545 3.236636 -1.000000
v -0.119545 3.236636 -1.500000
v 0.127684 3.236636 -1.000000
v 0.127684 3.236636 -1.500000
v 0.004069 3.248811 -1.000000
v 0.004069 3.248811 -1.500000
vn -1.0000 0.0000 0.0000
vn 0.0000 0.0000 -1.0000
vn 1.0000 0.0000 0.0000
vn 0.0000 0.0000 1.0000
vn 0.0000 -1.0000 0.0000
vn 0.0000 1.0000 0.0000
vn -0.8819 0.4714 0.0000
vn -0.9569 -0.2903 -0.0000
vn -0.4714 -0.8819 0.0000
vn -0.8819 -0.4714 0.0000
vn -0.6344 -0.7730 0.0000
vn 0.6344 -0.7730 0.0000
vn 0.7730 -0.6344 0.0000
vn 0.9569 -0.2903 0.0000
vn 0.4714 -0.8819 0.0000
vn -0.0980 -0.9952 0.0000
vn 0.0980 -0.9952 0.0000
vn 0.8819 0.4714 0.0000
vn 0.8819 -0.4714 0.0000
vn -0.2903 -0.9569 0.0000
vn 0.2903 -0.9569 0.0000
vn -0.7730 -0.6344 0.0000
usemtl Material
s off
f 1//1 2//1 4//1 3//1
f 3//2 4//2 8//2 7//2 15//2 13//2 36//2 24//2 23//2 33//2 39//2 45//2 49//2 55//2 57//2 53//2 51//2 47//2 43//2 41//2 31//2 28//2 11//2 9//2
f 7//3 8//3 6//3 5//3
f 5//4 6//4 2//4 1//4 10//4 12//4 27//4 26//4 30//4 40//4 42//4 46//4 50//4 52//4 56//4 54//4 48//4 44//4 38//4 32//4 21//4 22//4 35//4 14//4 16//4
f 3//5 9//5 10//5 1//5
f 8//6 4//6 2//6 6//6
f 11//3 12//3 10//3 9//3
f 13//5 14//5 35//5 36//5
f 16//5 15//5 7//5 5//5
f 14//1 13//1 15//1 16//1
f 19//7 20//7 29//7 34//7
f 21//8 23//8 24//8 37//8 25//8 22//8
f 37//8 24//8 36//8 35//8 22//8 25//8
f 45//9 44//9 48//9 49//9
f 23//10 21//10 32//10 33//10
f 39//11 38//11 44//11 45//11
f 47//12 46//12 42//12 43//12
f 43//13 42//13 40//13 41//13
f 31//14 34//14 29//14 26//14 27//14 28//14
f 34//14 31//14 30//14 26//14 29//14
f 51//15 50//15 46//15 47//15
f 28//5 27//5 12//5 11//5
f 55//16 54//16 56//16 57//16
f 57//17 56//17 52//17 53//17
f 37//18 25//18 18//18 17//18
f 41//19 40//19 30//19 31//19
f 49//20 48//20 54//20 55//20
f 53//21 52//21 50//21 51//21
f 33//22 32//22 38//22 39//22
o Mesh1_Plate_Grass_Dirt_Model
v -1.500000 0.000001 -1.500000
v 1.500000 0.000001 -1.500000
v 1.500000 -0.000001 1.500000
v -1.500000 -0.000001 1.500000
vt 0.000000 0.000000
vt -118.110001 118.110001
vt -118.110001 0.000000
vt 0.000000 118.110001
vn 0.0000 1.0000 0.0000
usemtl Wood
s 1
f 58/1/23 60/2/23 59/3/23
f 60/2/23 58/1/23 61/4/23
