# Blender v2.79 (sub 0) OBJ File: 'wall1.blend'
# www.blender.org
mtllib wall1.mtl
o Cube_Cube.001
v -1.500000 0.000000 -1.000000
v -1.500000 3.750000 -1.000000
v -1.500000 0.000000 -1.500000
v -1.500000 3.750000 -1.500000
v 1.500000 0.000000 -1.000000
v 1.500000 3.750000 -1.000000
v 1.500000 0.000000 -1.500000
v 1.500000 3.750000 -1.500000
vn -1.0000 0.0000 0.0000
vn 0.0000 0.0000 -1.0000
vn 1.0000 0.0000 0.0000
vn 0.0000 0.0000 1.0000
vn 0.0000 -1.0000 0.0000
vn 0.0000 1.0000 0.0000
usemtl Material
s off
f 1//1 2//1 4//1 3//1
f 3//2 4//2 8//2 7//2
f 7//3 8//3 6//3 5//3
f 5//4 6//4 2//4 1//4
f 3//5 7//5 5//5 1//5
f 8//6 4//6 2//6 6//6
o Mesh1_Plate_Grass_Dirt_Model
v -1.500000 0.000001 -1.500000
v 1.500000 0.000001 -1.500000
v 1.500000 -0.000001 1.500000
v -1.500000 -0.000001 1.500000
vt 0.000000 0.000000
vt -118.110001 118.110001
vt -118.110001 0.000000
vt 0.000000 118.110001
vn 0.0000 1.0000 0.0000
usemtl Wood
s 1
f 9/1/7 11/2/7 10/3/7
f 11/2/7 9/1/7 12/4/7
