# Blender v2.79 (sub 0) OBJ File: 'wall2.blend'
# www.blender.org
mtllib wall2.mtl
o Cube_Cube.001
v -1.500000 0.000000 -1.000000
v -1.500000 3.750000 -1.000000
v -1.500000 0.000000 -1.500000
v -1.500000 3.750000 -1.500000
v 1.500000 0.000000 -1.000000
v 1.500000 3.750000 -1.000000
v 1.500000 0.000000 -1.500000
v 1.500000 3.750000 -1.500000
v -1.000000 0.000000 -1.500000
v -1.000000 3.750000 -1.500000
v -1.000000 0.000000 -1.000000
v -1.000000 3.750000 -1.000000
v -1.500000 0.000000 1.500000
v -1.500000 3.750000 1.500000
v -1.000000 3.750000 1.500000
v -1.000000 0.000000 1.500000
vn -1.0000 0.0000 0.0000
vn 0.0000 0.0000 -1.0000
vn 1.0000 0.0000 0.0000
vn 0.0000 1.0000 0.0000
vn 0.0000 -1.0000 0.0000
vn 0.0000 0.0000 1.0000
usemtl Material
s off
f 1//1 2//1 4//1 3//1
f 9//2 10//2 8//2 7//2
f 7//3 8//3 6//3 5//3
f 12//4 2//4 14//4 15//4
f 9//5 7//5 5//5 11//5
f 10//4 4//4 2//4 12//4
f 8//4 10//4 12//4 6//4
f 3//5 9//5 11//5 1//5
f 5//6 6//6 12//6 11//6
f 3//2 4//2 10//2 9//2
f 16//6 15//6 14//6 13//6
f 11//3 12//3 15//3 16//3
f 1//5 11//5 16//5 13//5
f 2//1 1//1 13//1 14//1
o Mesh1_Plate_Grass_Dirt_Model
v -1.500000 -0.000000 1.500000
v 1.500000 -0.000000 1.500000
v 1.500000 0.000000 -1.500000
v -1.500000 0.000000 -1.500000
vt 0.000000 0.000000
vt -118.110001 118.110001
vt -118.110001 0.000000
vt 0.000000 118.110001
vn 0.0000 -1.0000 -0.0000
usemtl Wood
s 1
f 17/1/7 19/2/7 18/3/7
f 19/2/7 17/1/7 20/4/7
