# Blender v2.79 (sub 0) OBJ File: 'window.blend'
# www.blender.org
mtllib window.mtl
o Cube_Cube.001
v -1.500000 0.000000 -1.000000
v -1.500000 3.750000 -1.000000
v -1.500000 0.000000 -1.500000
v -1.500000 3.750000 -1.500000
v 1.500000 0.000000 -1.000000
v 1.500000 3.750000 -1.000000
v 1.500000 0.000000 -1.500000
v 1.500000 3.750000 -1.500000
v -0.224063 3.325119 -1.500000
v -0.224063 3.325119 -1.000000
v 0.000000 3.369688 -1.500000
v 0.000000 3.369688 -1.000000
v -0.114226 3.358438 -1.500000
v -0.114226 3.358438 -1.000000
v -0.486832 2.458889 -1.500000
v -0.486832 2.458889 -1.000000
v -0.414017 2.370163 -1.500000
v -0.414017 2.370163 -1.000000
v -0.540939 2.560116 -1.500000
v -0.540939 2.560116 -1.000000
v -0.325291 2.297348 -1.500000
v -0.325291 2.297348 -1.000000
v -0.000000 2.198672 -1.500000
v -0.000000 2.198672 -1.000000
v 0.114227 2.209922 -1.500000
v 0.114227 2.209922 -1.000000
v -0.114227 2.209922 -1.500000
v -0.114227 2.209922 -1.000000
v 0.574258 2.898407 -1.500000
v 0.574258 2.898407 -1.000000
v 0.414017 3.198196 -1.500000
v 0.414017 3.198196 -1.000000
v 0.325291 3.271012 -1.500000
v 0.325291 3.271012 -1.000000
v 0.224064 2.243241 -1.500000
v 0.224064 2.243241 -1.000000
v 0.540939 3.008244 -1.500000
v 0.540939 3.008244 -1.000000
v -0.486832 3.109471 -1.500000
v -0.486832 3.109471 -1.000000
v -0.414016 3.198197 -1.500000
v -0.414016 3.198197 -1.000000
v 0.114227 3.358437 -1.500000
v 0.114227 3.358437 -1.000000
v -0.540939 3.008245 -1.500000
v -0.540939 3.008245 -1.000000
v 0.540939 2.560116 -1.500000
v 0.540939 2.560116 -1.000000
v 0.574258 2.669953 -1.500000
v 0.574258 2.669953 -1.000000
v 0.486832 2.458889 -1.500000
v 0.486832 2.458889 -1.000000
v 0.585508 2.784180 -1.500000
v 0.585508 2.784180 -1.000000
v -0.574258 2.669953 -1.500000
v -0.574258 2.669953 -1.000000
v -0.325290 3.271012 -1.500000
v -0.325290 3.271012 -1.000000
v -0.224064 2.243241 -1.500000
v -0.224064 2.243241 -1.000000
v -0.585508 2.784180 -1.500000
v -0.585508 2.784180 -1.000000
v 0.486832 3.109470 -1.500000
v 0.486832 3.109470 -1.000000
v 0.414017 2.370163 -1.500000
v 0.414017 2.370163 -1.000000
v 0.325291 2.297348 -1.500000
v 0.325291 2.297348 -1.000000
v -0.574257 2.898407 -1.500000
v -0.574257 2.898407 -1.000000
v 0.224064 3.325119 -1.500000
v 0.224064 3.325119 -1.000000
vn -1.0000 0.0000 0.0000
vn 0.0000 0.0000 -1.0000
vn 1.0000 0.0000 0.0000
vn 0.0000 0.0000 1.0000
vn 0.0000 -1.0000 0.0000
vn 0.0000 1.0000 0.0000
vn -0.9952 0.0980 0.0000
vn -0.7730 0.6344 0.0000
vn -0.8819 0.4714 0.0000
vn 0.9952 -0.0980 0.0000
vn -0.9569 -0.2903 0.0000
vn -0.9952 -0.0980 -0.0000
vn -0.7730 -0.6344 0.0000
vn 0.0980 -0.9952 0.0000
vn 0.0980 0.9952 -0.0000
vn 0.8819 -0.4714 0.0000
vn -0.0980 0.9952 -0.0000
vn 0.2903 -0.9569 0.0000
vn -0.6344 -0.7730 0.0000
vn 0.4714 0.8819 0.0000
vn -0.4714 -0.8819 0.0000
vn -0.6344 0.7730 0.0000
vn 0.6344 -0.7730 0.0000
vn 0.9569 -0.2903 -0.0000
vn -0.4714 0.8819 0.0000
vn 0.6344 0.7730 0.0000
vn 0.8819 0.4714 0.0000
vn -0.8819 -0.4714 0.0000
vn -0.0980 -0.9952 0.0000
vn 0.9952 0.0980 0.0000
vn -0.9569 0.2903 0.0000
vn 0.2903 0.9569 0.0000
vn 0.4714 -0.8819 0.0000
vn -0.2903 -0.9569 0.0000
vn -0.2903 0.9569 0.0000
vn 0.9569 0.2903 0.0000
vn 0.7730 -0.6344 0.0000
vn 0.7730 0.6344 0.0000
usemtl Material
s off
f 1//1 2//1 4//1 3//1
f 3//2 4//2 61//2 55//2 19//2 15//2 17//2 21//2 59//2 27//2 23//2 25//2 35//2 67//2 65//2 51//2 47//2 49//2 53//2 8//2 7//2
f 7//3 8//3 6//3 5//3
f 5//4 6//4 54//4 50//4 48//4 52//4 66//4 68//4 36//4 26//4 24//4 28//4 60//4 22//4 18//4 16//4 20//4 56//4 62//4 2//4 1//4
f 3//5 7//5 5//5 1//5
f 8//6 4//6 2//6 6//6
f 49//7 50//7 54//7 53//7
f 65//8 66//8 52//8 51//8
f 51//9 52//9 48//9 47//9
f 69//10 70//10 62//10 61//10
f 29//11 30//11 38//11 37//11
f 53//12 54//12 30//12 29//12
f 63//13 64//13 32//13 31//13
f 11//14 12//14 14//14 13//14
f 27//15 28//15 24//15 23//15
f 39//16 40//16 46//16 45//16
f 23//17 24//17 26//17 25//17
f 13//18 14//18 10//18 9//18
f 31//19 32//19 34//19 33//19
f 21//20 22//20 60//20 59//20
f 33//21 34//21 72//21 71//21
f 67//22 68//22 66//22 65//22
f 57//23 58//23 42//23 41//23
f 45//24 46//24 70//24 69//24
f 8//2 53//2 29//2 37//2 63//2 31//2 33//2 71//2 43//2 11//2 13//2 9//2 57//2 41//2 39//2 45//2 69//2 61//2 4//2
f 35//25 36//25 68//25 67//25
f 17//26 18//26 22//26 21//26
f 19//27 20//27 16//27 15//27
f 37//28 38//28 64//28 63//28
f 43//29 44//29 12//29 11//29
f 61//30 62//30 56//30 55//30
f 47//31 48//31 50//31 49//31
f 59//32 60//32 28//32 27//32
f 2//4 62//4 70//4 46//4 40//4 42//4 58//4 10//4 14//4 12//4 44//4 72//4 34//4 32//4 64//4 38//4 30//4 54//4 6//4
f 9//33 10//33 58//33 57//33
f 71//34 72//34 44//34 43//34
f 25//35 26//35 36//35 35//35
f 55//36 56//36 20//36 19//36
f 41//37 42//37 40//37 39//37
f 15//38 16//38 18//38 17//38
o Mesh1_Plate_Grass_Dirt_Model
v -1.500000 0.000001 -1.500000
v 1.500000 0.000001 -1.500000
v 1.500000 -0.000001 1.500000
v -1.500000 -0.000001 1.500000
vt 0.000000 0.000000
vt -118.110001 118.110001
vt -118.110001 0.000000
vt 0.000000 118.110001
vn 0.0000 1.0000 0.0000
usemtl Wood
s 1
f 73/1/39 75/2/39 74/3/39
f 75/2/39 73/1/39 76/4/39
